# xmcd
#
# Track frame offsets:
#	150
#	16347
#	36110
#	54892
#	67392
#	87287
#	104167
#	121854
#	143607
#	159760
#	179530
#	198312
#	210777
#	230675
#	247540
#	265180
#
# Disc length: 3826 seconds
#
# Revision: 1
# Processed by: cddbd v1.5.2PL0 Copyright (c) Steve Scherf et al.
# Submitted via: audiograbber 1.83.01
#
DISCID=cf0ef010
DTITLE=Various Artist - 3011
DYEAR=1997
DGENRE=Country
TTITLE0=Nikki Nelson - Too Little Too Much
TTITLE1=George Strait - One Night At A Time
TTITLE2=Suzy Bogguss - She Said, He Heard
TTITLE3=Three Hanks - Moanin' The Blues
TTITLE4=Mila Mason - Dark Horse
TTITLE5=Noel Haggard - Once You Learn
TTITLE6=Kippi Branson - Daddy's Little Girl
TTITLE7=Brooks and Dunn - Why Would I Say Goodbye
TTITLE8=Nikki Nelson - Too Little Too Much (vocals)
TTITLE9=George Strait - One Night At A Time (vocals)
TTITLE10=Suzy Bogguss - She Said, He Heard (vocals)
TTITLE11=Three Hanks - Moanin' The Blues (vocals)
TTITLE12=Mila Mason - Dark Horse (vocals)
TTITLE13=Noel Haggard - Once You Learn (vocals)
TTITLE14=Kippi Branson - Daddy's Little Girl (vocals)
TTITLE15=Brooks and Dunn - Why Would I Say Goodbye (vocals)
EXTD=
EXTT0=
EXTT1=
EXTT2=
EXTT3=
EXTT4=
EXTT5=
EXTT6=
EXTT7=
EXTT8=
EXTT9=
EXTT10=
EXTT11=
EXTT12=
EXTT13=
EXTT14=
EXTT15=
PLAYORDER=
